<svg xmlns="http://www.w3.org/2000/svg" version="1.1" xmlns:xlink="http://www.w3.org/1999/xlink" xmlns:svgjs="http://svgjs.com/svgjs" width="1440" height="560" preserveAspectRatio="none" viewBox="0 0 1440 560">
    <g mask="url(&quot;#SvgjsMask1000&quot;)" fill="none">
        <rect width="1440" height="560" x="0" y="0" fill="#0e2a47"></rect>
        <path d="M-106.04 383.42L-106.04 383.42" stroke="#132e65" stroke-width="1.5"></path>
        <path d="M-106.04 383.42L55.67 408.44" stroke="#132e65" stroke-width="1.5"></path>
        <path d="M-106.04 383.42L64.79 514.89" stroke="#132e65" stroke-width="1.5"></path>
        <path d="M-106.04 383.42L-49.2 654.65" stroke="#132e65" stroke-width="1.5"></path>
        <path d="M-106.04 383.42L217 393.3" stroke="#132e65" stroke-width="1.5"></path>
        <path d="M-49.2 654.65L-49.2 654.65" stroke="#132e65" stroke-width="1.5"></path>
        <path d="M-49.2 654.65L76.12 704.78" stroke="#132e65" stroke-width="1.5"></path>
        <path d="M-49.2 654.65L64.79 514.89" stroke="#132e65" stroke-width="1.5"></path>
        <path d="M-49.2 654.65L210.85 704.25" stroke="#132e65" stroke-width="1.5"></path>
        <path d="M55.67 408.44L55.67 408.44" stroke="#132e65" stroke-width="1.5"></path>
        <path d="M55.67 408.44L64.79 514.89" stroke="#132e65" stroke-width="1.5"></path>
        <path d="M55.67 408.44L217 393.3" stroke="#132e65" stroke-width="1.5"></path>
        <path d="M64.79 514.89L64.79 514.89" stroke="#132e65" stroke-width="1.5"></path>
        <path d="M64.79 514.89L242.54 509.82" stroke="#132e65" stroke-width="1.5"></path>
        <path d="M64.79 514.89L76.12 704.78" stroke="#132e65" stroke-width="1.5"></path>
        <path d="M64.79 514.89L217 393.3" stroke="#132e65" stroke-width="1.5"></path>
        <path d="M76.12 704.78L76.12 704.78" stroke="#132e65" stroke-width="1.5"></path>
        <path d="M76.12 704.78L210.85 704.25" stroke="#132e65" stroke-width="1.5"></path>
        <path d="M217 393.3L217 393.3" stroke="#132e65" stroke-width="1.5"></path>
        <path d="M217 393.3L242.54 509.82" stroke="#132e65" stroke-width="1.5"></path>
        <path d="M217 393.3L353.07 506.81" stroke="#132e65" stroke-width="1.5"></path>
        <path d="M242.54 509.82L242.54 509.82" stroke="#132e65" stroke-width="1.5"></path>
        <path d="M242.54 509.82L353.07 506.81" stroke="#132e65" stroke-width="1.5"></path>
        <path d="M210.85 704.25L210.85 704.25" stroke="#132e65" stroke-width="1.5"></path>
        <path d="M210.85 704.25L337.52 695.7" stroke="#132e65" stroke-width="1.5"></path>
        <path d="M210.85 704.25L242.54 509.82" stroke="#132e65" stroke-width="1.5"></path>
        <path d="M210.85 704.25L64.79 514.89" stroke="#132e65" stroke-width="1.5"></path>
        <path d="M404.64 357.48L404.64 357.48" stroke="#132e65" stroke-width="1.5"></path>
        <path d="M404.64 357.48L547.04 365.28" stroke="#132e65" stroke-width="1.5"></path>
        <path d="M404.64 357.48L353.07 506.81" stroke="#132e65" stroke-width="1.5"></path>
        <path d="M404.64 357.48L217 393.3" stroke="#132e65" stroke-width="1.5"></path>
        <path d="M404.64 357.48L513.95 518.11" stroke="#132e65" stroke-width="1.5"></path>
        <path d="M404.64 357.48L242.54 509.82" stroke="#132e65" stroke-width="1.5"></path>
        <path d="M353.07 506.81L353.07 506.81" stroke="#132e65" stroke-width="1.5"></path>
        <path d="M353.07 506.81L513.95 518.11" stroke="#132e65" stroke-width="1.5"></path>
        <path d="M337.52 695.7L337.52 695.7" stroke="#132e65" stroke-width="1.5"></path>
        <path d="M337.52 695.7L517.41 670.4" stroke="#132e65" stroke-width="1.5"></path>
        <path d="M547.04 365.28L547.04 365.28" stroke="#132e65" stroke-width="1.5"></path>
        <path d="M547.04 365.28L670.23 408.53" stroke="#132e65" stroke-width="1.5"></path>
        <path d="M547.04 365.28L513.95 518.11" stroke="#132e65" stroke-width="1.5"></path>
        <path d="M547.04 365.28L650.84 491.92" stroke="#132e65" stroke-width="1.5"></path>
        <path d="M547.04 365.28L353.07 506.81" stroke="#132e65" stroke-width="1.5"></path>
        <path d="M513.95 518.11L513.95 518.11" stroke="#132e65" stroke-width="1.5"></path>
        <path d="M513.95 518.11L650.84 491.92" stroke="#132e65" stroke-width="1.5"></path>
        <path d="M513.95 518.11L517.41 670.4" stroke="#132e65" stroke-width="1.5"></path>
        <path d="M517.41 670.4L517.41 670.4" stroke="#132e65" stroke-width="1.5"></path>
        <path d="M517.41 670.4L663.77 660.21" stroke="#132e65" stroke-width="1.5"></path>
        <path d="M517.41 670.4L650.84 491.92" stroke="#132e65" stroke-width="1.5"></path>
        <path d="M517.41 670.4L353.07 506.81" stroke="#132e65" stroke-width="1.5"></path>
        <path d="M670.23 408.53L670.23 408.53" stroke="#132e65" stroke-width="1.5"></path>
        <path d="M670.23 408.53L650.84 491.92" stroke="#132e65" stroke-width="1.5"></path>
        <path d="M670.23 408.53L815.22 361.53" stroke="#132e65" stroke-width="1.5"></path>
        <path d="M650.84 491.92L650.84 491.92" stroke="#132e65" stroke-width="1.5"></path>
        <path d="M650.84 491.92L809.91 492.47" stroke="#132e65" stroke-width="1.5"></path>
        <path d="M650.84 491.92L663.77 660.21" stroke="#132e65" stroke-width="1.5"></path>
        <path d="M650.84 491.92L815.22 361.53" stroke="#132e65" stroke-width="1.5"></path>
        <path d="M663.77 660.21L663.77 660.21" stroke="#132e65" stroke-width="1.5"></path>
        <path d="M663.77 660.21L853.58 693.4" stroke="#132e65" stroke-width="1.5"></path>
        <path d="M663.77 660.21L513.95 518.11" stroke="#132e65" stroke-width="1.5"></path>
        <path d="M663.77 660.21L809.91 492.47" stroke="#132e65" stroke-width="1.5"></path>
        <path d="M831.81 197.6L831.81 197.6" stroke="#132e65" stroke-width="1.5"></path>
        <path d="M831.81 197.6L945.69 229.38" stroke="#132e65" stroke-width="1.5"></path>
        <path d="M831.81 197.6L815.22 361.53" stroke="#132e65" stroke-width="1.5"></path>
        <path d="M831.81 197.6L953.61 370.96" stroke="#132e65" stroke-width="1.5"></path>
        <path d="M831.81 197.6L977.48 41.06" stroke="#132e65" stroke-width="1.5"></path>
        <path d="M831.81 197.6L670.23 408.53" stroke="#132e65" stroke-width="1.5"></path>
        <path d="M815.22 361.53L815.22 361.53" stroke="#132e65" stroke-width="1.5"></path>
        <path d="M815.22 361.53L809.91 492.47" stroke="#132e65" stroke-width="1.5"></path>
        <path d="M815.22 361.53L953.61 370.96" stroke="#132e65" stroke-width="1.5"></path>
        <path d="M815.22 361.53L945.69 229.38" stroke="#132e65" stroke-width="1.5"></path>
        <path d="M809.91 492.47L809.91 492.47" stroke="#132e65" stroke-width="1.5"></path>
        <path d="M809.91 492.47L947.94 540.12" stroke="#132e65" stroke-width="1.5"></path>
        <path d="M809.91 492.47L670.23 408.53" stroke="#132e65" stroke-width="1.5"></path>
        <path d="M809.91 492.47L953.61 370.96" stroke="#132e65" stroke-width="1.5"></path>
        <path d="M809.91 492.47L853.58 693.4" stroke="#132e65" stroke-width="1.5"></path>
        <path d="M853.58 693.4L853.58 693.4" stroke="#132e65" stroke-width="1.5"></path>
        <path d="M853.58 693.4L1008.72 651.22" stroke="#132e65" stroke-width="1.5"></path>
        <path d="M853.58 693.4L947.94 540.12" stroke="#132e65" stroke-width="1.5"></path>
        <path d="M853.58 693.4L650.84 491.92" stroke="#132e65" stroke-width="1.5"></path>
        <path d="M853.58 693.4L1141.84 697.78" stroke="#132e65" stroke-width="1.5"></path>
        <path d="M951.57 -106.49L951.57 -106.49" stroke="#132e65" stroke-width="1.5"></path>
        <path d="M951.57 -106.49L1090.38 -61.93" stroke="#132e65" stroke-width="1.5"></path>
        <path d="M951.57 -106.49L977.48 41.06" stroke="#132e65" stroke-width="1.5"></path>
        <path d="M951.57 -106.49L1124.65 91.93" stroke="#132e65" stroke-width="1.5"></path>
        <path d="M951.57 -106.49L831.81 197.6" stroke="#132e65" stroke-width="1.5"></path>
        <path d="M951.57 -106.49L945.69 229.38" stroke="#132e65" stroke-width="1.5"></path>
        <path d="M977.48 41.06L977.48 41.06" stroke="#132e65" stroke-width="1.5"></path>
        <path d="M977.48 41.06L1090.38 -61.93" stroke="#132e65" stroke-width="1.5"></path>
        <path d="M945.69 229.38L945.69 229.38" stroke="#132e65" stroke-width="1.5"></path>
        <path d="M945.69 229.38L953.61 370.96" stroke="#132e65" stroke-width="1.5"></path>
        <path d="M945.69 229.38L977.48 41.06" stroke="#132e65" stroke-width="1.5"></path>
        <path d="M953.61 370.96L953.61 370.96" stroke="#132e65" stroke-width="1.5"></path>
        <path d="M953.61 370.96L1107.32 402.56" stroke="#132e65" stroke-width="1.5"></path>
        <path d="M953.61 370.96L947.94 540.12" stroke="#132e65" stroke-width="1.5"></path>
        <path d="M947.94 540.12L947.94 540.12" stroke="#132e65" stroke-width="1.5"></path>
        <path d="M947.94 540.12L1008.72 651.22" stroke="#132e65" stroke-width="1.5"></path>
        <path d="M1008.72 651.22L1008.72 651.22" stroke="#132e65" stroke-width="1.5"></path>
        <path d="M1008.72 651.22L1141.84 697.78" stroke="#132e65" stroke-width="1.5"></path>
        <path d="M1090.38 -61.93L1090.38 -61.93" stroke="#132e65" stroke-width="1.5"></path>
        <path d="M1090.38 -61.93L1124.65 91.93" stroke="#132e65" stroke-width="1.5"></path>
        <path d="M1090.38 -61.93L1249.1 92.24" stroke="#132e65" stroke-width="1.5"></path>
        <path d="M1124.65 91.93L1124.65 91.93" stroke="#132e65" stroke-width="1.5"></path>
        <path d="M1124.65 91.93L1249.1 92.24" stroke="#132e65" stroke-width="1.5"></path>
        <path d="M1124.65 91.93L977.48 41.06" stroke="#132e65" stroke-width="1.5"></path>
        <path d="M1124.65 91.93L1142.73 255.48" stroke="#132e65" stroke-width="1.5"></path>
        <path d="M1124.65 91.93L1283.01 243.03" stroke="#132e65" stroke-width="1.5"></path>
        <path d="M1124.65 91.93L945.69 229.38" stroke="#132e65" stroke-width="1.5"></path>
        <path d="M1142.73 255.48L1142.73 255.48" stroke="#132e65" stroke-width="1.5"></path>
        <path d="M1142.73 255.48L1283.01 243.03" stroke="#132e65" stroke-width="1.5"></path>
        <path d="M1142.73 255.48L1107.32 402.56" stroke="#132e65" stroke-width="1.5"></path>
        <path d="M1107.32 402.56L1107.32 402.56" stroke="#132e65" stroke-width="1.5"></path>
        <path d="M1107.32 402.56L1146.76 491.23" stroke="#132e65" stroke-width="1.5"></path>
        <path d="M1146.76 491.23L1146.76 491.23" stroke="#132e65" stroke-width="1.5"></path>
        <path d="M1146.76 491.23L1294.01 510.8" stroke="#132e65" stroke-width="1.5"></path>
        <path d="M1146.76 491.23L1305.48 366.68" stroke="#132e65" stroke-width="1.5"></path>
        <path d="M1146.76 491.23L947.94 540.12" stroke="#132e65" stroke-width="1.5"></path>
        <path d="M1146.76 491.23L1141.84 697.78" stroke="#132e65" stroke-width="1.5"></path>
        <path d="M1146.76 491.23L1008.72 651.22" stroke="#132e65" stroke-width="1.5"></path>
        <path d="M1141.84 697.78L1141.84 697.78" stroke="#132e65" stroke-width="1.5"></path>
        <path d="M1141.84 697.78L1281.99 712.31" stroke="#132e65" stroke-width="1.5"></path>
        <path d="M1249.1 92.24L1249.1 92.24" stroke="#132e65" stroke-width="1.5"></path>
        <path d="M1249.1 92.24L1283.01 243.03" stroke="#132e65" stroke-width="1.5"></path>
        <path d="M1249.1 92.24L1406.12 96.29" stroke="#132e65" stroke-width="1.5"></path>
        <path d="M1249.1 92.24L1142.73 255.48" stroke="#132e65" stroke-width="1.5"></path>
        <path d="M1249.1 92.24L1399.98 -68.63" stroke="#132e65" stroke-width="1.5"></path>
        <path d="M1283.01 243.03L1283.01 243.03" stroke="#132e65" stroke-width="1.5"></path>
        <path d="M1283.01 243.03L1305.48 366.68" stroke="#132e65" stroke-width="1.5"></path>
        <path d="M1305.48 366.68L1305.48 366.68" stroke="#132e65" stroke-width="1.5"></path>
        <path d="M1305.48 366.68L1440.01 403.63" stroke="#132e65" stroke-width="1.5"></path>
        <path d="M1305.48 366.68L1294.01 510.8" stroke="#132e65" stroke-width="1.5"></path>
        <path d="M1305.48 366.68L1436.15 257.77" stroke="#132e65" stroke-width="1.5"></path>
        <path d="M1305.48 366.68L1391.57 533.47" stroke="#132e65" stroke-width="1.5"></path>
        <path d="M1305.48 366.68L1142.73 255.48" stroke="#132e65" stroke-width="1.5"></path>
        <path d="M1294.01 510.8L1294.01 510.8" stroke="#132e65" stroke-width="1.5"></path>
        <path d="M1294.01 510.8L1391.57 533.47" stroke="#132e65" stroke-width="1.5"></path>
        <path d="M1294.01 510.8L1440.01 403.63" stroke="#132e65" stroke-width="1.5"></path>
        <path d="M1281.99 712.31L1281.99 712.31" stroke="#132e65" stroke-width="1.5"></path>
        <path d="M1281.99 712.31L1432.47 652.4" stroke="#132e65" stroke-width="1.5"></path>
        <path d="M1281.99 712.31L1294.01 510.8" stroke="#132e65" stroke-width="1.5"></path>
        <path d="M1281.99 712.31L1391.57 533.47" stroke="#132e65" stroke-width="1.5"></path>
        <path d="M1399.98 -68.63L1399.98 -68.63" stroke="#132e65" stroke-width="1.5"></path>
        <path d="M1399.98 -68.63L1544.96 -70.83" stroke="#132e65" stroke-width="1.5"></path>
        <path d="M1399.98 -68.63L1406.12 96.29" stroke="#132e65" stroke-width="1.5"></path>
        <path d="M1406.12 96.29L1406.12 96.29" stroke="#132e65" stroke-width="1.5"></path>
        <path d="M1406.12 96.29L1566.05 106.1" stroke="#132e65" stroke-width="1.5"></path>
        <path d="M1406.12 96.29L1436.15 257.77" stroke="#132e65" stroke-width="1.5"></path>
        <path d="M1436.15 257.77L1436.15 257.77" stroke="#132e65" stroke-width="1.5"></path>
        <path d="M1436.15 257.77L1440.01 403.63" stroke="#132e65" stroke-width="1.5"></path>
        <path d="M1436.15 257.77L1283.01 243.03" stroke="#132e65" stroke-width="1.5"></path>
        <path d="M1440.01 403.63L1440.01 403.63" stroke="#132e65" stroke-width="1.5"></path>
        <path d="M1440.01 403.63L1391.57 533.47" stroke="#132e65" stroke-width="1.5"></path>
        <path d="M1391.57 533.47L1391.57 533.47" stroke="#132e65" stroke-width="1.5"></path>
        <path d="M1391.57 533.47L1432.47 652.4" stroke="#132e65" stroke-width="1.5"></path>
        <path d="M1432.47 652.4L1432.47 652.4" stroke="#132e65" stroke-width="1.5"></path>
        <path d="M1432.47 652.4L1560.15 685.46" stroke="#132e65" stroke-width="1.5"></path>
        <path d="M1544.96 -70.83L1544.96 -70.83" stroke="#132e65" stroke-width="1.5"></path>
        <path d="M1544.96 -70.83L1566.05 106.1" stroke="#132e65" stroke-width="1.5"></path>
        <path d="M1544.96 -70.83L1406.12 96.29" stroke="#132e65" stroke-width="1.5"></path>
        <path d="M1544.96 -70.83L1249.1 92.24" stroke="#132e65" stroke-width="1.5"></path>
        <path d="M1544.96 -70.83L1436.15 257.77" stroke="#132e65" stroke-width="1.5"></path>
        <path d="M1544.96 -70.83L1283.01 243.03" stroke="#132e65" stroke-width="1.5"></path>
        <path d="M1566.05 106.1L1566.05 106.1" stroke="#132e65" stroke-width="1.5"></path>
        <path d="M1566.05 106.1L1436.15 257.77" stroke="#132e65" stroke-width="1.5"></path>
        <path d="M1566.05 106.1L1399.98 -68.63" stroke="#132e65" stroke-width="1.5"></path>
        <path d="M1599.03 400.43L1599.03 400.43" stroke="#132e65" stroke-width="1.5"></path>
        <path d="M1599.03 400.43L1590.39 527.62" stroke="#132e65" stroke-width="1.5"></path>
        <path d="M1599.03 400.43L1440.01 403.63" stroke="#132e65" stroke-width="1.5"></path>
        <path d="M1599.03 400.43L1436.15 257.77" stroke="#132e65" stroke-width="1.5"></path>
        <path d="M1599.03 400.43L1391.57 533.47" stroke="#132e65" stroke-width="1.5"></path>
        <path d="M1599.03 400.43L1560.15 685.46" stroke="#132e65" stroke-width="1.5"></path>
        <path d="M1590.39 527.62L1590.39 527.62" stroke="#132e65" stroke-width="1.5"></path>
        <path d="M1590.39 527.62L1560.15 685.46" stroke="#132e65" stroke-width="1.5"></path>
        <path d="M1560.15 685.46L1560.15 685.46" stroke="#132e65" stroke-width="1.5"></path>
        <path d="M1560.15 685.46L1391.57 533.47" stroke="#132e65" stroke-width="1.5"></path>
        <path d="M1560.15 685.46L1281.99 712.31" stroke="#132e65" stroke-width="1.5"></path>
        <circle r="5" cx="-106.04" cy="383.42" fill="#132e65"></circle>
        <circle r="5" cx="-49.2" cy="654.65" fill="#132e65"></circle>
        <circle r="5" cx="55.67" cy="408.44" fill="#132e65"></circle>
        <circle r="5" cx="64.79" cy="514.89" fill="#132e65"></circle>
        <circle r="5" cx="76.12" cy="704.78" fill="#132e65"></circle>
        <circle r="5" cx="217" cy="393.3" fill="#132e65"></circle>
        <circle r="5" cx="242.54" cy="509.82" fill="#132e65"></circle>
        <circle r="5" cx="210.85" cy="704.25" fill="#132e65"></circle>
        <circle r="5" cx="404.64" cy="357.48" fill="#132e65"></circle>
        <circle r="5" cx="353.07" cy="506.81" fill="#132e65"></circle>
        <circle r="5" cx="337.52" cy="695.7" fill="#132e65"></circle>
        <circle r="5" cx="547.04" cy="365.28" fill="#132e65"></circle>
        <circle r="5" cx="513.95" cy="518.11" fill="#132e65"></circle>
        <circle r="5" cx="517.41" cy="670.4" fill="#132e65"></circle>
        <circle r="5" cx="670.23" cy="408.53" fill="#132e65"></circle>
        <circle r="5" cx="650.84" cy="491.92" fill="#132e65"></circle>
        <circle r="5" cx="663.77" cy="660.21" fill="#132e65"></circle>
        <circle r="5" cx="831.81" cy="197.6" fill="#132e65"></circle>
        <circle r="5" cx="815.22" cy="361.53" fill="#132e65"></circle>
        <circle r="5" cx="809.91" cy="492.47" fill="#132e65"></circle>
        <circle r="5" cx="853.58" cy="693.4" fill="#132e65"></circle>
        <circle r="5" cx="951.57" cy="-106.49" fill="#132e65"></circle>
        <circle r="5" cx="977.48" cy="41.06" fill="#132e65"></circle>
        <circle r="5" cx="945.69" cy="229.38" fill="#132e65"></circle>
        <circle r="5" cx="953.61" cy="370.96" fill="#132e65"></circle>
        <circle r="5" cx="947.94" cy="540.12" fill="#132e65"></circle>
        <circle r="5" cx="1008.72" cy="651.22" fill="#132e65"></circle>
        <circle r="5" cx="1090.38" cy="-61.93" fill="#132e65"></circle>
        <circle r="5" cx="1124.65" cy="91.93" fill="#132e65"></circle>
        <circle r="5" cx="1142.73" cy="255.48" fill="#132e65"></circle>
        <circle r="5" cx="1107.32" cy="402.56" fill="#132e65"></circle>
        <circle r="5" cx="1146.76" cy="491.23" fill="#132e65"></circle>
        <circle r="5" cx="1141.84" cy="697.78" fill="#132e65"></circle>
        <circle r="5" cx="1249.1" cy="92.24" fill="#132e65"></circle>
        <circle r="5" cx="1283.01" cy="243.03" fill="#132e65"></circle>
        <circle r="5" cx="1305.48" cy="366.68" fill="#132e65"></circle>
        <circle r="5" cx="1294.01" cy="510.8" fill="#132e65"></circle>
        <circle r="5" cx="1281.99" cy="712.31" fill="#132e65"></circle>
        <circle r="5" cx="1399.98" cy="-68.63" fill="#132e65"></circle>
        <circle r="5" cx="1406.12" cy="96.29" fill="#132e65"></circle>
        <circle r="5" cx="1436.15" cy="257.77" fill="#132e65"></circle>
        <circle r="5" cx="1440.01" cy="403.63" fill="#132e65"></circle>
        <circle r="5" cx="1391.57" cy="533.47" fill="#132e65"></circle>
        <circle r="5" cx="1432.47" cy="652.4" fill="#132e65"></circle>
        <circle r="5" cx="1544.96" cy="-70.83" fill="#132e65"></circle>
        <circle r="5" cx="1566.05" cy="106.1" fill="#132e65"></circle>
        <circle r="5" cx="1599.03" cy="400.43" fill="#132e65"></circle>
        <circle r="5" cx="1590.39" cy="527.62" fill="#132e65"></circle>
        <circle r="5" cx="1560.15" cy="685.46" fill="#132e65"></circle>
        <path d="M558.24 503.49L558.24 503.49" stroke="hsl(228.5, 77.2%, 51.5%)" stroke-width="1.5"></path>
        <path d="M558.24 503.49L674.93 499.04" stroke="hsl(228.5, 77.2%, 51.5%)" stroke-width="1.5"></path>
        <path d="M558.24 503.49L545.7 657.73" stroke="hsl(228.5, 77.2%, 51.5%)" stroke-width="1.5"></path>
        <path d="M558.24 503.49L376.46 487.74" stroke="hsl(228.5, 77.2%, 51.5%)" stroke-width="1.5"></path>
        <path d="M545.7 657.73L545.7 657.73" stroke="hsl(228.5, 77.2%, 51.5%)" stroke-width="1.5"></path>
        <path d="M545.7 657.73L651.65 699.12" stroke="hsl(228.5, 77.2%, 51.5%)" stroke-width="1.5"></path>
        <path d="M850.49 356.73L850.49 356.73" stroke="hsl(228.5, 77.2%, 51.5%)" stroke-width="1.5"></path>
        <path d="M850.49 356.73L977.11 339.11" stroke="hsl(228.5, 77.2%, 51.5%)" stroke-width="1.5"></path>
        <path d="M850.49 356.73L827.24 511.23" stroke="hsl(228.5, 77.2%, 51.5%)" stroke-width="1.5"></path>
        <path d="M850.49 356.73L992.37 499.04" stroke="hsl(228.5, 77.2%, 51.5%)" stroke-width="1.5"></path>
        <path d="M992.37 499.04L992.37 499.04" stroke="hsl(228.5, 77.2%, 51.5%)" stroke-width="1.5"></path>
        <path d="M992.37 499.04L1122.76 496.82" stroke="hsl(228.5, 77.2%, 51.5%)" stroke-width="1.5"></path>
        <path d="M992.37 499.04L1110.13 396.53" stroke="hsl(228.5, 77.2%, 51.5%)" stroke-width="1.5"></path>
        <path d="M992.37 499.04L977.11 339.11" stroke="hsl(228.5, 77.2%, 51.5%)" stroke-width="1.5"></path>
        <path d="M1255.71 353.22L1255.71 353.22" stroke="hsl(228.5, 77.2%, 51.5%)" stroke-width="1.5"></path>
        <path d="M1255.71 353.22L1260.26 212.86" stroke="hsl(228.5, 77.2%, 51.5%)" stroke-width="1.5"></path>
        <path d="M1255.71 353.22L1110.13 396.53" stroke="hsl(228.5, 77.2%, 51.5%)" stroke-width="1.5"></path>
        <path d="M1255.71 353.22L1412.07 369.48" stroke="hsl(228.5, 77.2%, 51.5%)" stroke-width="1.5"></path>
        <path d="M1255.71 353.22L1126.33 247.56" stroke="hsl(228.5, 77.2%, 51.5%)" stroke-width="1.5"></path>
        <path d="M-68.82 511.27L-68.82 511.27" stroke="hsl(228.5, 77.2%, 51.5%)" stroke-width="1.5"></path>
        <path d="M-68.82 511.27L99.36 546.78" stroke="hsl(228.5, 77.2%, 51.5%)" stroke-width="1.5"></path>
        <path d="M-68.82 511.27L-70.89 703.43" stroke="hsl(228.5, 77.2%, 51.5%)" stroke-width="1.5"></path>
        <path d="M-68.82 511.27L103.95 667.08" stroke="hsl(228.5, 77.2%, 51.5%)" stroke-width="1.5"></path>
        <path d="M-68.82 511.27L244.43 517.44" stroke="hsl(228.5, 77.2%, 51.5%)" stroke-width="1.5"></path>
        <path d="M-68.82 511.27L260.88 669.7" stroke="hsl(228.5, 77.2%, 51.5%)" stroke-width="1.5"></path>
        <path d="M-68.82 511.27L376.46 487.74" stroke="hsl(228.5, 77.2%, 51.5%)" stroke-width="1.5"></path>
        <path d="M-70.89 703.43L-70.89 703.43" stroke="hsl(228.5, 77.2%, 51.5%)" stroke-width="1.5"></path>
        <path d="M-70.89 703.43L103.95 667.08" stroke="hsl(228.5, 77.2%, 51.5%)" stroke-width="1.5"></path>
        <path d="M-70.89 703.43L99.36 546.78" stroke="hsl(228.5, 77.2%, 51.5%)" stroke-width="1.5"></path>
        <path d="M-70.89 703.43L260.88 669.7" stroke="hsl(228.5, 77.2%, 51.5%)" stroke-width="1.5"></path>
        <path d="M-70.89 703.43L244.43 517.44" stroke="hsl(228.5, 77.2%, 51.5%)" stroke-width="1.5"></path>
        <path d="M-70.89 703.43L384.41 651.65" stroke="hsl(228.5, 77.2%, 51.5%)" stroke-width="1.5"></path>
        <path d="M99.36 546.78L99.36 546.78" stroke="hsl(228.5, 77.2%, 51.5%)" stroke-width="1.5"></path>
        <path d="M99.36 546.78L103.95 667.08" stroke="hsl(228.5, 77.2%, 51.5%)" stroke-width="1.5"></path>
        <path d="M99.36 546.78L244.43 517.44" stroke="hsl(228.5, 77.2%, 51.5%)" stroke-width="1.5"></path>
        <path d="M99.36 546.78L260.88 669.7" stroke="hsl(228.5, 77.2%, 51.5%)" stroke-width="1.5"></path>
        <path d="M99.36 546.78L376.46 487.74" stroke="hsl(228.5, 77.2%, 51.5%)" stroke-width="1.5"></path>
        <path d="M103.95 667.08L103.95 667.08" stroke="hsl(228.5, 77.2%, 51.5%)" stroke-width="1.5"></path>
        <path d="M103.95 667.08L260.88 669.7" stroke="hsl(228.5, 77.2%, 51.5%)" stroke-width="1.5"></path>
        <path d="M244.43 517.44L244.43 517.44" stroke="hsl(228.5, 77.2%, 51.5%)" stroke-width="1.5"></path>
        <path d="M244.43 517.44L376.46 487.74" stroke="hsl(228.5, 77.2%, 51.5%)" stroke-width="1.5"></path>
        <path d="M244.43 517.44L260.88 669.7" stroke="hsl(228.5, 77.2%, 51.5%)" stroke-width="1.5"></path>
        <path d="M244.43 517.44L384.41 651.65" stroke="hsl(228.5, 77.2%, 51.5%)" stroke-width="1.5"></path>
        <path d="M244.43 517.44L103.95 667.08" stroke="hsl(228.5, 77.2%, 51.5%)" stroke-width="1.5"></path>
        <path d="M260.88 669.7L260.88 669.7" stroke="hsl(228.5, 77.2%, 51.5%)" stroke-width="1.5"></path>
        <path d="M260.88 669.7L384.41 651.65" stroke="hsl(228.5, 77.2%, 51.5%)" stroke-width="1.5"></path>
        <path d="M376.46 487.74L376.46 487.74" stroke="hsl(228.5, 77.2%, 51.5%)" stroke-width="1.5"></path>
        <path d="M376.46 487.74L384.41 651.65" stroke="hsl(228.5, 77.2%, 51.5%)" stroke-width="1.5"></path>
        <path d="M384.41 651.65L384.41 651.65" stroke="hsl(228.5, 77.2%, 51.5%)" stroke-width="1.5"></path>
        <path d="M384.41 651.65L545.7 657.73" stroke="hsl(228.5, 77.2%, 51.5%)" stroke-width="1.5"></path>
        <path d="M674.93 499.04L674.93 499.04" stroke="hsl(228.5, 77.2%, 51.5%)" stroke-width="1.5"></path>
        <path d="M674.93 499.04L827.24 511.23" stroke="hsl(228.5, 77.2%, 51.5%)" stroke-width="1.5"></path>
        <path d="M674.93 499.04L651.65 699.12" stroke="hsl(228.5, 77.2%, 51.5%)" stroke-width="1.5"></path>
        <path d="M674.93 499.04L545.7 657.73" stroke="hsl(228.5, 77.2%, 51.5%)" stroke-width="1.5"></path>
        <path d="M651.65 699.12L651.65 699.12" stroke="hsl(228.5, 77.2%, 51.5%)" stroke-width="1.5"></path>
        <path d="M651.65 699.12L841.57 644.05" stroke="hsl(228.5, 77.2%, 51.5%)" stroke-width="1.5"></path>
        <path d="M651.65 699.12L558.24 503.49" stroke="hsl(228.5, 77.2%, 51.5%)" stroke-width="1.5"></path>
        <path d="M827.24 511.23L827.24 511.23" stroke="hsl(228.5, 77.2%, 51.5%)" stroke-width="1.5"></path>
        <path d="M827.24 511.23L841.57 644.05" stroke="hsl(228.5, 77.2%, 51.5%)" stroke-width="1.5"></path>
        <path d="M841.57 644.05L841.57 644.05" stroke="hsl(228.5, 77.2%, 51.5%)" stroke-width="1.5"></path>
        <path d="M841.57 644.05L1011.02 666.48" stroke="hsl(228.5, 77.2%, 51.5%)" stroke-width="1.5"></path>
        <path d="M841.57 644.05L992.37 499.04" stroke="hsl(228.5, 77.2%, 51.5%)" stroke-width="1.5"></path>
        <path d="M841.57 644.05L674.93 499.04" stroke="hsl(228.5, 77.2%, 51.5%)" stroke-width="1.5"></path>
        <path d="M977.11 339.11L977.11 339.11" stroke="hsl(228.5, 77.2%, 51.5%)" stroke-width="1.5"></path>
        <path d="M977.11 339.11L1110.13 396.53" stroke="hsl(228.5, 77.2%, 51.5%)" stroke-width="1.5"></path>
        <path d="M977.11 339.11L1126.33 247.56" stroke="hsl(228.5, 77.2%, 51.5%)" stroke-width="1.5"></path>
        <path d="M977.11 339.11L1122.76 496.82" stroke="hsl(228.5, 77.2%, 51.5%)" stroke-width="1.5"></path>
        <path d="M977.11 339.11L827.24 511.23" stroke="hsl(228.5, 77.2%, 51.5%)" stroke-width="1.5"></path>
        <path d="M1011.02 666.48L1011.02 666.48" stroke="hsl(228.5, 77.2%, 51.5%)" stroke-width="1.5"></path>
        <path d="M1011.02 666.48L1147.52 698.13" stroke="hsl(228.5, 77.2%, 51.5%)" stroke-width="1.5"></path>
        <path d="M1011.02 666.48L992.37 499.04" stroke="hsl(228.5, 77.2%, 51.5%)" stroke-width="1.5"></path>
        <path d="M1011.02 666.48L1122.76 496.82" stroke="hsl(228.5, 77.2%, 51.5%)" stroke-width="1.5"></path>
        <path d="M1126.33 247.56L1126.33 247.56" stroke="hsl(228.5, 77.2%, 51.5%)" stroke-width="1.5"></path>
        <path d="M1126.33 247.56L1260.26 212.86" stroke="hsl(228.5, 77.2%, 51.5%)" stroke-width="1.5"></path>
        <path d="M1126.33 247.56L1110.13 396.53" stroke="hsl(228.5, 77.2%, 51.5%)" stroke-width="1.5"></path>
        <path d="M1110.13 396.53L1110.13 396.53" stroke="hsl(228.5, 77.2%, 51.5%)" stroke-width="1.5"></path>
        <path d="M1110.13 396.53L1122.76 496.82" stroke="hsl(228.5, 77.2%, 51.5%)" stroke-width="1.5"></path>
        <path d="M1110.13 396.53L1238.17 534.6" stroke="hsl(228.5, 77.2%, 51.5%)" stroke-width="1.5"></path>
        <path d="M1122.76 496.82L1122.76 496.82" stroke="hsl(228.5, 77.2%, 51.5%)" stroke-width="1.5"></path>
        <path d="M1122.76 496.82L1238.17 534.6" stroke="hsl(228.5, 77.2%, 51.5%)" stroke-width="1.5"></path>
        <path d="M1122.76 496.82L1255.71 353.22" stroke="hsl(228.5, 77.2%, 51.5%)" stroke-width="1.5"></path>
        <path d="M1122.76 496.82L1147.52 698.13" stroke="hsl(228.5, 77.2%, 51.5%)" stroke-width="1.5"></path>
        <path d="M1147.52 698.13L1147.52 698.13" stroke="hsl(228.5, 77.2%, 51.5%)" stroke-width="1.5"></path>
        <path d="M1147.52 698.13L1238.17 534.6" stroke="hsl(228.5, 77.2%, 51.5%)" stroke-width="1.5"></path>
        <path d="M1147.52 698.13L992.37 499.04" stroke="hsl(228.5, 77.2%, 51.5%)" stroke-width="1.5"></path>
        <path d="M1304.4 -108.28L1304.4 -108.28" stroke="hsl(228.5, 77.2%, 51.5%)" stroke-width="1.5"></path>
        <path d="M1304.4 -108.28L1394.17 -55.35" stroke="hsl(228.5, 77.2%, 51.5%)" stroke-width="1.5"></path>
        <path d="M1304.4 -108.28L1298.31 63.19" stroke="hsl(228.5, 77.2%, 51.5%)" stroke-width="1.5"></path>
        <path d="M1304.4 -108.28L1440.49 95.61" stroke="hsl(228.5, 77.2%, 51.5%)" stroke-width="1.5"></path>
        <path d="M1304.4 -108.28L1611.93 -81.5" stroke="hsl(228.5, 77.2%, 51.5%)" stroke-width="1.5"></path>
        <path d="M1304.4 -108.28L1557.41 78.79" stroke="hsl(228.5, 77.2%, 51.5%)" stroke-width="1.5"></path>
        <path d="M1304.4 -108.28L1260.26 212.86" stroke="hsl(228.5, 77.2%, 51.5%)" stroke-width="1.5"></path>
        <path d="M1298.31 63.19L1298.31 63.19" stroke="hsl(228.5, 77.2%, 51.5%)" stroke-width="1.5"></path>
        <path d="M1298.31 63.19L1440.49 95.61" stroke="hsl(228.5, 77.2%, 51.5%)" stroke-width="1.5"></path>
        <path d="M1260.26 212.86L1260.26 212.86" stroke="hsl(228.5, 77.2%, 51.5%)" stroke-width="1.5"></path>
        <path d="M1260.26 212.86L1298.31 63.19" stroke="hsl(228.5, 77.2%, 51.5%)" stroke-width="1.5"></path>
        <path d="M1260.26 212.86L1459.46 251.55" stroke="hsl(228.5, 77.2%, 51.5%)" stroke-width="1.5"></path>
        <path d="M1238.17 534.6L1238.17 534.6" stroke="hsl(228.5, 77.2%, 51.5%)" stroke-width="1.5"></path>
        <path d="M1238.17 534.6L1412.15 554.52" stroke="hsl(228.5, 77.2%, 51.5%)" stroke-width="1.5"></path>
        <path d="M1238.17 534.6L1255.71 353.22" stroke="hsl(228.5, 77.2%, 51.5%)" stroke-width="1.5"></path>
        <path d="M1394.17 -55.35L1394.17 -55.35" stroke="hsl(228.5, 77.2%, 51.5%)" stroke-width="1.5"></path>
        <path d="M1394.17 -55.35L1298.31 63.19" stroke="hsl(228.5, 77.2%, 51.5%)" stroke-width="1.5"></path>
        <path d="M1394.17 -55.35L1440.49 95.61" stroke="hsl(228.5, 77.2%, 51.5%)" stroke-width="1.5"></path>
        <path d="M1394.17 -55.35L1557.41 78.79" stroke="hsl(228.5, 77.2%, 51.5%)" stroke-width="1.5"></path>
        <path d="M1394.17 -55.35L1611.93 -81.5" stroke="hsl(228.5, 77.2%, 51.5%)" stroke-width="1.5"></path>
        <path d="M1394.17 -55.35L1539.97 187.65" stroke="hsl(228.5, 77.2%, 51.5%)" stroke-width="1.5"></path>
        <path d="M1440.49 95.61L1440.49 95.61" stroke="hsl(228.5, 77.2%, 51.5%)" stroke-width="1.5"></path>
        <path d="M1440.49 95.61L1557.41 78.79" stroke="hsl(228.5, 77.2%, 51.5%)" stroke-width="1.5"></path>
        <path d="M1440.49 95.61L1539.97 187.65" stroke="hsl(228.5, 77.2%, 51.5%)" stroke-width="1.5"></path>
        <path d="M1440.49 95.61L1459.46 251.55" stroke="hsl(228.5, 77.2%, 51.5%)" stroke-width="1.5"></path>
        <path d="M1459.46 251.55L1459.46 251.55" stroke="hsl(228.5, 77.2%, 51.5%)" stroke-width="1.5"></path>
        <path d="M1459.46 251.55L1539.97 187.65" stroke="hsl(228.5, 77.2%, 51.5%)" stroke-width="1.5"></path>
        <path d="M1459.46 251.55L1412.07 369.48" stroke="hsl(228.5, 77.2%, 51.5%)" stroke-width="1.5"></path>
        <path d="M1459.46 251.55L1610.28 359.42" stroke="hsl(228.5, 77.2%, 51.5%)" stroke-width="1.5"></path>
        <path d="M1412.07 369.48L1412.07 369.48" stroke="hsl(228.5, 77.2%, 51.5%)" stroke-width="1.5"></path>
        <path d="M1412.07 369.48L1412.15 554.52" stroke="hsl(228.5, 77.2%, 51.5%)" stroke-width="1.5"></path>
        <path d="M1412.07 369.48L1610.28 359.42" stroke="hsl(228.5, 77.2%, 51.5%)" stroke-width="1.5"></path>
        <path d="M1412.07 369.48L1260.26 212.86" stroke="hsl(228.5, 77.2%, 51.5%)" stroke-width="1.5"></path>
        <path d="M1412.07 369.48L1539.97 187.65" stroke="hsl(228.5, 77.2%, 51.5%)" stroke-width="1.5"></path>
        <path d="M1412.15 554.52L1412.15 554.52" stroke="hsl(228.5, 77.2%, 51.5%)" stroke-width="1.5"></path>
        <path d="M1412.15 554.52L1436.26 676.69" stroke="hsl(228.5, 77.2%, 51.5%)" stroke-width="1.5"></path>
        <path d="M1412.15 554.52L1567.22 536.45" stroke="hsl(228.5, 77.2%, 51.5%)" stroke-width="1.5"></path>
        <path d="M1436.26 676.69L1436.26 676.69" stroke="hsl(228.5, 77.2%, 51.5%)" stroke-width="1.5"></path>
        <path d="M1436.26 676.69L1543.06 699.04" stroke="hsl(228.5, 77.2%, 51.5%)" stroke-width="1.5"></path>
        <path d="M1611.93 -81.5L1611.93 -81.5" stroke="hsl(228.5, 77.2%, 51.5%)" stroke-width="1.5"></path>
        <path d="M1611.93 -81.5L1557.41 78.79" stroke="hsl(228.5, 77.2%, 51.5%)" stroke-width="1.5"></path>
        <path d="M1557.41 78.79L1557.41 78.79" stroke="hsl(228.5, 77.2%, 51.5%)" stroke-width="1.5"></path>
        <path d="M1557.41 78.79L1539.97 187.65" stroke="hsl(228.5, 77.2%, 51.5%)" stroke-width="1.5"></path>
        <path d="M1557.41 78.79L1459.46 251.55" stroke="hsl(228.5, 77.2%, 51.5%)" stroke-width="1.5"></path>
        <path d="M1539.97 187.65L1539.97 187.65" stroke="hsl(228.5, 77.2%, 51.5%)" stroke-width="1.5"></path>
        <path d="M1539.97 187.65L1610.28 359.42" stroke="hsl(228.5, 77.2%, 51.5%)" stroke-width="1.5"></path>
        <path d="M1610.28 359.42L1610.28 359.42" stroke="hsl(228.5, 77.2%, 51.5%)" stroke-width="1.5"></path>
        <path d="M1610.28 359.42L1567.22 536.45" stroke="hsl(228.5, 77.2%, 51.5%)" stroke-width="1.5"></path>
        <path d="M1610.28 359.42L1412.15 554.52" stroke="hsl(228.5, 77.2%, 51.5%)" stroke-width="1.5"></path>
        <path d="M1567.22 536.45L1567.22 536.45" stroke="hsl(228.5, 77.2%, 51.5%)" stroke-width="1.5"></path>
        <path d="M1567.22 536.45L1543.06 699.04" stroke="hsl(228.5, 77.2%, 51.5%)" stroke-width="1.5"></path>
        <path d="M1543.06 699.04L1543.06 699.04" stroke="hsl(228.5, 77.2%, 51.5%)" stroke-width="1.5"></path>
        <path d="M1543.06 699.04L1412.15 554.52" stroke="hsl(228.5, 77.2%, 51.5%)" stroke-width="1.5"></path>
        <path d="M1543.06 699.04L1610.28 359.42" stroke="hsl(228.5, 77.2%, 51.5%)" stroke-width="1.5"></path>
        <path d="M1543.06 699.04L1238.17 534.6" stroke="hsl(228.5, 77.2%, 51.5%)" stroke-width="1.5"></path>
        <path d="M1543.06 699.04L1412.07 369.48" stroke="hsl(228.5, 77.2%, 51.5%)" stroke-width="1.5"></path>
        <circle r="25" cx="558.24" cy="503.49" fill="url(#SvgjsRadialGradient1001)"></circle>
        <circle r="25" cx="545.7" cy="657.73" fill="url(#SvgjsRadialGradient1001)"></circle>
        <circle r="25" cx="850.49" cy="356.73" fill="url(#SvgjsRadialGradient1001)"></circle>
        <circle r="25" cx="992.37" cy="499.04" fill="url(#SvgjsRadialGradient1001)"></circle>
        <circle r="25" cx="1255.71" cy="353.22" fill="url(#SvgjsRadialGradient1001)"></circle>
        <circle r="5" cx="-68.82" cy="511.27" fill="#8b9ad9"></circle>
        <circle r="5" cx="-70.89" cy="703.43" fill="#8b9ad9"></circle>
        <circle r="5" cx="99.36" cy="546.78" fill="#8b9ad9"></circle>
        <circle r="5" cx="103.95" cy="667.08" fill="#8b9ad9"></circle>
        <circle r="5" cx="244.43" cy="517.44" fill="#8b9ad9"></circle>
        <circle r="5" cx="260.88" cy="669.7" fill="#8b9ad9"></circle>
        <circle r="5" cx="376.46" cy="487.74" fill="#8b9ad9"></circle>
        <circle r="5" cx="384.41" cy="651.65" fill="#8b9ad9"></circle>
        <circle r="5" cx="674.93" cy="499.04" fill="#8b9ad9"></circle>
        <circle r="5" cx="651.65" cy="699.12" fill="#8b9ad9"></circle>
        <circle r="5" cx="827.24" cy="511.23" fill="#8b9ad9"></circle>
        <circle r="5" cx="841.57" cy="644.05" fill="#8b9ad9"></circle>
        <circle r="5" cx="977.11" cy="339.11" fill="#8b9ad9"></circle>
        <circle r="5" cx="1011.02" cy="666.48" fill="#8b9ad9"></circle>
        <circle r="5" cx="1126.33" cy="247.56" fill="#8b9ad9"></circle>
        <circle r="5" cx="1110.13" cy="396.53" fill="#8b9ad9"></circle>
        <circle r="5" cx="1122.76" cy="496.82" fill="#8b9ad9"></circle>
        <circle r="5" cx="1147.52" cy="698.13" fill="#8b9ad9"></circle>
        <circle r="5" cx="1304.4" cy="-108.28" fill="#8b9ad9"></circle>
        <circle r="5" cx="1298.31" cy="63.19" fill="#8b9ad9"></circle>
        <circle r="5" cx="1260.26" cy="212.86" fill="#8b9ad9"></circle>
        <circle r="5" cx="1238.17" cy="534.6" fill="#8b9ad9"></circle>
        <circle r="5" cx="1394.17" cy="-55.35" fill="#8b9ad9"></circle>
        <circle r="5" cx="1440.49" cy="95.61" fill="#8b9ad9"></circle>
        <circle r="5" cx="1459.46" cy="251.55" fill="#8b9ad9"></circle>
        <circle r="5" cx="1412.07" cy="369.48" fill="#8b9ad9"></circle>
        <circle r="5" cx="1412.15" cy="554.52" fill="#8b9ad9"></circle>
        <circle r="5" cx="1436.26" cy="676.69" fill="#8b9ad9"></circle>
        <circle r="5" cx="1611.93" cy="-81.5" fill="#8b9ad9"></circle>
        <circle r="5" cx="1557.41" cy="78.79" fill="#8b9ad9"></circle>
        <circle r="5" cx="1539.97" cy="187.65" fill="#8b9ad9"></circle>
        <circle r="5" cx="1610.28" cy="359.42" fill="#8b9ad9"></circle>
        <circle r="5" cx="1567.22" cy="536.45" fill="#8b9ad9"></circle>
        <circle r="5" cx="1543.06" cy="699.04" fill="#8b9ad9"></circle>
    </g>
    <defs>
        <mask id="SvgjsMask1000">
            <rect width="1440" height="560" fill="#ffffff"></rect>
        </mask>
        <radialGradient id="SvgjsRadialGradient1001">
            <stop stop-color="#ffffff" offset="0.1"></stop>
            <stop stop-color="#1735b3" offset="0.2"></stop>
            <stop stop-color="rgba(23, 53, 179, 0)" offset="1"></stop>
        </radialGradient>
    </defs>
</svg>